<?xml version="1.0" encoding="UTF-8"?>
<svg xmlns="http://www.w3.org/2000/svg" xmlns:xlink="http://www.w3.org/1999/xlink" width="51px" height="50px" viewBox="0 0 51 50" version="1.1">
<g id="surface1">
<path style=" stroke:none;fill-rule:nonzero;fill:rgb(99.215686%,99.215686%,99.215686%);fill-opacity:1;" d="M 0 0 C 16.828125 0 33.660156 0 51 0 C 51 16.5 51 33 51 50 C 34.171875 50 17.339844 50 0 50 C 0 33.5 0 17 0 0 Z M 0 0 "/>
<path style=" stroke:none;fill-rule:nonzero;fill:rgb(22.352941%,22.352941%,22.352941%);fill-opacity:1;" d="M 27.695312 7.433594 C 29.949219 7.398438 32.203125 7.375 34.453125 7.359375 C 35.21875 7.351562 35.984375 7.34375 36.75 7.332031 C 37.855469 7.3125 38.960938 7.304688 40.0625 7.300781 C 40.402344 7.292969 40.742188 7.285156 41.089844 7.28125 C 44.054688 7.277344 46.5625 8.105469 48.746094 10.175781 C 50.765625 12.445312 51.246094 14.914062 51.191406 17.859375 C 51.191406 18.210938 51.191406 18.558594 51.191406 18.921875 C 51.191406 20.0625 51.179688 21.207031 51.164062 22.351562 C 51.160156 23.152344 51.160156 23.949219 51.15625 24.746094 C 51.152344 26.839844 51.132812 28.929688 51.117188 31.023438 C 51.09375 33.535156 51.085938 36.050781 51.078125 38.566406 C 51.0625 42.375 51.03125 46.1875 51 50 C 40.632812 50 30.269531 50 19.589844 50 C 19.949219 48.566406 20.160156 48.335938 21.171875 47.359375 C 23.011719 45.382812 23.78125 43.050781 24.65625 40.539062 C 24.328125 40.554688 24.328125 40.554688 23.992188 40.566406 C 22.980469 40.601562 21.972656 40.625 20.960938 40.644531 C 20.617188 40.660156 20.269531 40.675781 19.914062 40.6875 C 17.0625 40.734375 15.261719 40.027344 13.082031 38.214844 C 10.535156 35.242188 9.980469 32.574219 10.050781 28.726562 C 10.132812 27.703125 10.132812 27.703125 10.46875 27.363281 C 11.316406 27.324219 11.316406 27.324219 12.160156 27.363281 C 12.808594 28.015625 12.585938 29.242188 12.625 30.109375 C 12.789062 33.09375 13.355469 34.980469 15.535156 37.164062 C 17.730469 38.425781 19.910156 38.335938 22.398438 38.367188 C 23.191406 38.378906 23.984375 38.390625 24.777344 38.410156 C 25.128906 38.414062 25.476562 38.417969 25.835938 38.421875 C 26.683594 38.511719 26.683594 38.511719 27.359375 39.1875 C 27.265625 41.984375 25.878906 44.511719 24.65625 46.960938 C 28.472656 45.140625 32.136719 43.074219 34.496094 39.425781 C 35.957031 38.050781 37.328125 38.261719 39.261719 38.300781 C 42.238281 38.339844 44.816406 38.203125 47.074219 36.0625 C 48.558594 33.554688 48.789062 31.433594 48.769531 28.570312 C 48.769531 28.203125 48.773438 27.839844 48.773438 27.464844 C 48.773438 26.695312 48.773438 25.929688 48.769531 25.160156 C 48.761719 23.988281 48.769531 22.820312 48.773438 21.652344 C 48.773438 20.902344 48.773438 20.152344 48.769531 19.40625 C 48.773438 19.058594 48.773438 18.710938 48.777344 18.351562 C 48.757812 16.273438 48.472656 14.738281 47.621094 12.835938 C 47.519531 12.574219 47.414062 12.308594 47.304688 12.035156 C 46.824219 11.300781 46.410156 11.140625 45.597656 10.8125 C 45.097656 10.554688 45.097656 10.554688 44.585938 10.292969 C 42.984375 9.609375 41.410156 9.640625 39.6875 9.636719 C 39.355469 9.632812 39.023438 9.625 38.679688 9.621094 C 37.621094 9.605469 36.5625 9.59375 35.503906 9.585938 C 34.441406 9.574219 33.375 9.558594 32.3125 9.542969 C 31.648438 9.535156 30.988281 9.527344 30.328125 9.523438 C 30.03125 9.519531 29.734375 9.515625 29.429688 9.511719 C 29.167969 9.511719 28.90625 9.507812 28.636719 9.507812 C 28.03125 9.460938 28.03125 9.460938 27.695312 9.121094 C 27.679688 8.558594 27.679688 7.996094 27.695312 7.433594 Z M 27.695312 7.433594 "/>
<path style=" stroke:none;fill-rule:nonzero;fill:rgb(21.176471%,65.882355%,44.705883%);fill-opacity:1;" d="M 12.898438 -0.167969 C 14.5 0.0429688 14.859375 0.523438 15.820312 1.75 C 16.636719 3.03125 16.585938 4.15625 16.570312 5.636719 C 16.566406 6.035156 16.566406 6.433594 16.5625 6.84375 C 16.558594 7.152344 16.554688 7.457031 16.550781 7.769531 C 17.179688 7.742188 17.179688 7.742188 17.820312 7.710938 C 18.375 7.695312 18.929688 7.679688 19.484375 7.664062 C 19.757812 7.652344 20.035156 7.636719 20.320312 7.621094 C 21.757812 7.59375 22.441406 7.640625 23.660156 8.46875 C 24.988281 10.46875 24.554688 13.207031 24.144531 15.492188 C 23.53125 17.730469 22.53125 20.875 20.601562 22.296875 C 19.730469 22.402344 18.9375 22.449219 18.0625 22.445312 C 17.8125 22.445312 17.566406 22.449219 17.308594 22.449219 C 16.785156 22.453125 16.257812 22.449219 15.730469 22.449219 C 14.929688 22.445312 14.128906 22.453125 13.328125 22.464844 C 12.816406 22.464844 12.304688 22.464844 11.792969 22.464844 C 11.554688 22.46875 11.320312 22.472656 11.074219 22.476562 C 9.253906 22.449219 8.042969 21.898438 6.753906 20.609375 C 6.65625 19.128906 6.648438 17.644531 6.636719 16.164062 C 6.632812 15.664062 6.621094 15.167969 6.609375 14.667969 C 6.589844 13.949219 6.582031 13.230469 6.578125 12.511719 C 6.570312 12.082031 6.566406 11.652344 6.558594 11.207031 C 6.753906 10.136719 6.753906 10.136719 7.566406 9.523438 C 7.855469 9.390625 8.144531 9.257812 8.445312 9.121094 C 10.660156 6.835938 11.285156 4.25 11.425781 1.152344 C 11.515625 -0.0820312 11.636719 0.0273438 12.898438 -0.167969 Z M 12.898438 -0.167969 "/>
<path style=" stroke:none;fill-rule:nonzero;fill:rgb(99.215686%,99.215686%,99.215686%);fill-opacity:1;" d="M 50.664062 33.445312 C 50.773438 33.445312 50.886719 33.445312 51 33.445312 C 51 38.910156 51 44.371094 51 50 C 41.972656 50 32.945312 50 23.640625 50 C 24.566406 49.382812 25.492188 48.914062 26.496094 48.441406 C 29.339844 47.082031 32.113281 45.636719 34.078125 43.085938 C 34.988281 41.949219 35.726562 41.023438 37.214844 40.734375 C 38.683594 40.601562 40.148438 40.601562 41.621094 40.589844 C 44.359375 40.554688 46.484375 39.578125 48.476562 37.71875 C 49.570312 36.496094 50.398438 35.085938 50.664062 33.445312 Z M 50.664062 33.445312 "/>
<path style=" stroke:none;fill-rule:nonzero;fill:rgb(22.745098%,66.666669%,45.882353%);fill-opacity:1;" d="M 2.152344 9.074219 C 2.390625 9.078125 2.625 9.078125 2.871094 9.078125 C 3.109375 9.078125 3.34375 9.078125 3.589844 9.074219 C 5.359375 9.078125 5.359375 9.078125 5.742188 9.460938 C 5.777344 10.378906 5.789062 11.292969 5.785156 12.214844 C 5.785156 12.628906 5.785156 12.628906 5.789062 13.050781 C 5.789062 13.636719 5.789062 14.222656 5.785156 14.808594 C 5.785156 15.707031 5.785156 16.605469 5.789062 17.503906 C 5.789062 18.070312 5.789062 18.636719 5.785156 19.203125 C 5.789062 19.472656 5.789062 19.746094 5.789062 20.023438 C 5.78125 21.921875 5.78125 21.921875 5.402344 22.296875 C 4.554688 22.332031 3.71875 22.34375 2.871094 22.339844 C 2.632812 22.339844 2.394531 22.34375 2.152344 22.34375 C 0.378906 22.339844 0.378906 22.339844 0 21.960938 C -0.0351562 21.039062 -0.046875 20.125 -0.0429688 19.203125 C -0.046875 18.929688 -0.046875 18.652344 -0.046875 18.367188 C -0.046875 17.78125 -0.046875 17.195312 -0.0429688 16.613281 C -0.0429688 15.714844 -0.0429688 14.816406 -0.046875 13.914062 C -0.046875 13.347656 -0.046875 12.78125 -0.0429688 12.214844 C -0.046875 11.945312 -0.046875 11.671875 -0.046875 11.394531 C -0.0390625 9.230469 -0.0351562 9.078125 2.152344 9.074219 Z M 2.152344 9.074219 "/>
<path style=" stroke:none;fill-rule:nonzero;fill:rgb(15.294118%,15.294118%,15.294118%);fill-opacity:1;" d="M 24.992188 23.3125 C 30.453125 23.3125 35.917969 23.3125 41.542969 23.3125 C 41.710938 24.148438 41.710938 24.148438 41.878906 25 C 41.339844 25.539062 40.773438 25.382812 40.027344 25.386719 C 39.703125 25.390625 39.382812 25.390625 39.050781 25.394531 C 38.523438 25.394531 38.523438 25.394531 37.988281 25.394531 C 37.628906 25.394531 37.273438 25.398438 36.902344 25.398438 C 36.144531 25.398438 35.386719 25.402344 34.628906 25.402344 C 33.464844 25.402344 32.300781 25.40625 31.136719 25.414062 C 30.402344 25.414062 29.667969 25.414062 28.929688 25.414062 C 28.582031 25.417969 28.230469 25.421875 27.871094 25.421875 C 27.546875 25.421875 27.222656 25.421875 26.890625 25.417969 C 26.605469 25.421875 26.320312 25.421875 26.027344 25.421875 C 25.332031 25.335938 25.332031 25.335938 24.65625 24.664062 C 24.765625 24.214844 24.878906 23.769531 24.992188 23.3125 Z M 24.992188 23.3125 "/>
<path style=" stroke:none;fill-rule:nonzero;fill:rgb(24.313726%,24.313726%,24.313726%);fill-opacity:1;" d="M 22.585938 29.648438 C 22.972656 29.652344 22.972656 29.652344 23.363281 29.652344 C 23.800781 29.652344 23.800781 29.652344 24.246094 29.652344 C 24.558594 29.65625 24.871094 29.660156 25.195312 29.664062 C 25.519531 29.664062 25.839844 29.664062 26.171875 29.667969 C 27.199219 29.671875 28.226562 29.679688 29.257812 29.6875 C 29.953125 29.691406 30.652344 29.695312 31.347656 29.695312 C 33.058594 29.703125 34.765625 29.714844 36.476562 29.730469 C 36.6875 30.363281 36.6875 30.363281 36.816406 31.082031 C 36.140625 31.757812 36.140625 31.757812 35.507812 31.839844 C 35.121094 31.835938 35.121094 31.835938 34.730469 31.832031 C 34.292969 31.832031 34.292969 31.832031 33.847656 31.832031 C 33.535156 31.828125 33.21875 31.828125 32.894531 31.824219 C 32.574219 31.820312 32.253906 31.820312 31.921875 31.820312 C 30.894531 31.816406 29.863281 31.808594 28.835938 31.800781 C 28.136719 31.796875 27.441406 31.792969 26.746094 31.789062 C 25.035156 31.78125 23.324219 31.769531 21.617188 31.757812 C 21.40625 31.125 21.40625 31.125 21.277344 30.40625 C 21.953125 29.730469 21.953125 29.730469 22.585938 29.648438 Z M 22.585938 29.648438 "/>
<path style=" stroke:none;fill-rule:nonzero;fill:rgb(21.960784%,21.960784%,21.960784%);fill-opacity:1;" d="M 29.722656 16.890625 C 33.621094 16.890625 37.523438 16.890625 41.542969 16.890625 C 41.710938 17.726562 41.710938 17.726562 41.878906 18.582031 C 41.542969 18.917969 41.542969 18.917969 40.417969 18.957031 C 39.921875 18.957031 39.421875 18.957031 38.925781 18.953125 C 38.664062 18.953125 38.398438 18.949219 38.128906 18.949219 C 37.289062 18.949219 36.449219 18.945312 35.613281 18.941406 C 35.042969 18.9375 34.476562 18.9375 33.90625 18.933594 C 32.511719 18.933594 31.117188 18.925781 29.722656 18.917969 C 29.34375 17.652344 29.34375 17.652344 29.722656 16.890625 Z M 29.722656 16.890625 "/>
</g>
</svg>
